<svg id="svgQrWrapper" viewBox="0 0 300 300" xmlns="http://www.w3.org/2000/svg" xmlns:xlink="http://www.w3.org/1999/xlink" style="width: 100%; height: 100%; background-color: rgb(255, 255, 255);"><svg fill="#22071b" xmlns="http://www.w3.org/2000/svg" width="300" height="300" viewBox="0 0 300 300"><path d="M259.93.91H41.08a3.9,3.9,0,0,0-3.9,3.89V295a3.9,3.9,0,0,0,3.9,3.89H259.93a3.9,3.9,0,0,0,3.9-3.89V4.8A3.9,3.9,0,0,0,259.93.91ZM70.27,73.64H231.43v5.2H70.27ZM232,263.81a3.85,3.85,0,0,1-3.85,3.85H73.81A3.85,3.85,0,0,1,70,263.81V107.9A3.85,3.85,0,0,1,73.81,104H228.17A3.85,3.85,0,0,1,232,107.9Z"/><g transform="translate(76, 111)scale(0.5)" fill="none"><svg width="300" height="300"><style>.background-color{ fill: #fff; }.dot-color{ fill: #22071b; }.corners-square-color-0-0{ fill: #22071b; }.corners-dot-color-0-0{ fill: #22071b; }.corners-square-color-1-0{ fill: #22071b; }.corners-dot-color-1-0{ fill: #22071b; }.corners-square-color-0-1{ fill: #22071b; }.corners-dot-color-0-1{ fill: #22071b; }</style><defs/><g class="dot-color"><path d="M 5 85v 10h 10v -5a 5 5, 0, 0, 0, -5 -5" transform="rotate(-90,10,90)"/><rect x="5" y="95" width="10" height="10" transform="rotate(0,10,100)"/><path d="M 5 105v 10h 10v -5a 5 5, 0, 0, 0, -5 -5" transform="rotate(90,10,110)"/><path d="M 5 125v 10h 10v -5a 5 5, 0, 0, 0, -5 -5" transform="rotate(-90,10,130)"/><rect x="5" y="135" width="10" height="10" transform="rotate(0,10,140)"/><path d="M 5 175v 10h 10v -5a 5 5, 0, 0, 0, -5 -5" transform="rotate(-90,10,180)"/><rect x="5" y="185" width="10" height="10" transform="rotate(0,10,190)"/><rect x="15" y="85" width="10" height="10" transform="rotate(0,20,90)"/><path d="M 15 95v 10h 10v -5a 5 5, 0, 0, 0, -5 -5" transform="rotate(90,20,100)"/><path d="M 15 115v 10h 10v -5a 5 5, 0, 0, 0, -5 -5" transform="rotate(-90,20,120)"/><rect x="15" y="125" width="10" height="10" transform="rotate(0,20,130)"/><path d="M 15 135v 10h 10v -5a 5 5, 0, 0, 0, -5 -5" transform="rotate(90,20,140)"/><rect x="15" y="175" width="10" height="10" transform="rotate(0,20,180)"/><path d="M 15 185v 10h 10v -5a 5 5, 0, 0, 0, -5 -5" transform="rotate(90,20,190)"/><rect x="25" y="85" width="10" height="10" transform="rotate(0,30,90)"/><path d="M 25 105v 10h 10v -5a 5 5, 0, 0, 0, -5 -5" transform="rotate(-90,30,110)"/><path d="M 25 125v 10h 10v -5a 5 5, 0, 0, 0, -5 -5" transform="rotate(90,30,130)"/><path d="M 25 145v 5a 5 5, 0, 0, 0, 5 5h 5v -5a 5 5, 0, 0, 0, -5 -5" transform="rotate(90,30,150)"/><path d="M 25 195v 5a 5 5, 0, 0, 0, 5 5h 5v -5a 5 5, 0, 0, 0, -5 -5" transform="rotate(90,30,200)"/><rect x="35" y="85" width="10" height="10" transform="rotate(0,40,90)"/><path d="M 35 105v 10h 10v -5a 5 5, 0, 0, 0, -5 -5" transform="rotate(90,40,110)"/><path d="M 35 135v 5a 5 5, 0, 0, 0, 5 5h 5v -5a 5 5, 0, 0, 0, -5 -5" transform="rotate(90,40,140)"/><path d="M 35 155v 10h 10v -5a 5 5, 0, 0, 0, -5 -5" transform="rotate(-90,40,160)"/><path d="M 35 165v 10h 10v -5a 5 5, 0, 0, 0, -5 -5" transform="rotate(90,40,170)"/><path d="M 35 185v 5a 5 5, 0, 0, 0, 5 5h 5v -5a 5 5, 0, 0, 0, -5 -5" transform="rotate(90,40,190)"/><rect x="45" y="85" width="10" height="10" transform="rotate(0,50,90)"/><rect x="45" y="95" width="10" height="10" transform="rotate(0,50,100)"/><path d="M 45 195v 10h 10v -5a 5 5, 0, 0, 0, -5 -5" transform="rotate(-90,50,200)"/><rect x="45" y="205" width="10" height="10" transform="rotate(0,50,210)"/><path d="M 55 95v 10h 10v -5a 5 5, 0, 0, 0, -5 -5" transform="rotate(90,60,100)"/><path d="M 55 115v 5a 5 5, 0, 0, 0, 5 5h 5v -5a 5 5, 0, 0, 0, -5 -5" transform="rotate(90,60,120)"/><path d="M 55 145v 10h 10v -5a 5 5, 0, 0, 0, -5 -5" transform="rotate(-90,60,150)"/><rect x="55" y="155" width="10" height="10" transform="rotate(0,60,160)"/><rect x="55" y="165" width="10" height="10" transform="rotate(0,60,170)"/><path d="M 55 175v 10h 10v -5a 5 5, 0, 0, 0, -5 -5" transform="rotate(90,60,180)"/><rect x="55" y="195" width="10" height="10" transform="rotate(0,60,200)"/><rect x="55" y="205" width="10" height="10" transform="rotate(0,60,210)"/><path d="M 65 85v 10h 10v -5a 5 5, 0, 0, 0, -5 -5" transform="rotate(-90,70,90)"/><path d="M 65 105v 10h 10v -5a 5 5, 0, 0, 0, -5 -5" transform="rotate(-90,70,110)"/><path d="M 65 125v 10h 10v -5a 5 5, 0, 0, 0, -5 -5" transform="rotate(-90,70,130)"/><path d="M 65 145v 10h 10v -5a 5 5, 0, 0, 0, -5 -5" transform="rotate(90,70,150)"/><rect x="65" y="165" width="10" height="10" transform="rotate(0,70,170)"/><path d="M 65 185v 10h 10v -5a 5 5, 0, 0, 0, -5 -5" transform="rotate(-90,70,190)"/><rect x="65" y="205" width="10" height="10" transform="rotate(0,70,210)"/><rect x="75" y="85" width="10" height="10" transform="rotate(0,80,90)"/><rect x="75" y="95" width="10" height="10" transform="rotate(0,80,100)"/><path d="M 75 105v 10h 10v -5a 5 5, 0, 0, 0, -5 -5" transform="rotate(90,80,110)"/><rect x="75" y="125" width="10" height="10" transform="rotate(0,80,130)"/><rect x="75" y="165" width="10" height="10" transform="rotate(0,80,170)"/><rect x="75" y="175" width="10" height="10" transform="rotate(0,80,180)"/><rect x="75" y="185" width="10" height="10" transform="rotate(0,80,190)"/><rect x="75" y="195" width="10" height="10" transform="rotate(0,80,200)"/><rect x="75" y="205" width="10" height="10" transform="rotate(0,80,210)"/><path d="M 85 15v 10h 10v -5a 5 5, 0, 0, 0, -5 -5" transform="rotate(-90,90,20)"/><rect x="85" y="25" width="10" height="10" transform="rotate(0,90,30)"/><path d="M 85 45v 10h 10v -5a 5 5, 0, 0, 0, -5 -5" transform="rotate(-90,90,50)"/><path d="M 85 65v 10h 10v -5a 5 5, 0, 0, 0, -5 -5" transform="rotate(-90,90,70)"/><rect x="85" y="75" width="10" height="10" transform="rotate(0,90,80)"/><path d="M 85 95v 10h 10v -5a 5 5, 0, 0, 0, -5 -5" transform="rotate(90,90,100)"/><rect x="85" y="125" width="10" height="10" transform="rotate(0,90,130)"/><rect x="85" y="135" width="10" height="10" transform="rotate(0,90,140)"/><rect x="85" y="185" width="10" height="10" transform="rotate(0,90,190)"/><path d="M 85 205v 10h 10v -5a 5 5, 0, 0, 0, -5 -5" transform="rotate(90,90,210)"/><path d="M 85 225v 10h 10v -5a 5 5, 0, 0, 0, -5 -5" transform="rotate(-90,90,230)"/><path d="M 85 245v 10h 10v -5a 5 5, 0, 0, 0, -5 -5" transform="rotate(-90,90,250)"/><rect x="85" y="255" width="10" height="10" transform="rotate(0,90,260)"/><rect x="85" y="265" width="10" height="10" transform="rotate(0,90,270)"/><rect x="85" y="275" width="10" height="10" transform="rotate(0,90,280)"/><rect x="85" y="285" width="10" height="10" transform="rotate(0,90,290)"/><path d="M 95 5v 5a 5 5, 0, 0, 0, 5 5h 5v -5a 5 5, 0, 0, 0, -5 -5" transform="rotate(90,100,10)"/><rect x="95" y="25" width="10" height="10" transform="rotate(0,100,30)"/><rect x="95" y="45" width="10" height="10" transform="rotate(0,100,50)"/><rect x="95" y="55" width="10" height="10" transform="rotate(0,100,60)"/><rect x="95" y="75" width="10" height="10" transform="rotate(0,100,80)"/><path d="M 95 85v 10h 10v -5a 5 5, 0, 0, 0, -5 -5" transform="rotate(90,100,90)"/><path d="M 95 115v 10h 10v -5a 5 5, 0, 0, 0, -5 -5" transform="rotate(-90,100,120)"/><rect x="95" y="135" width="10" height="10" transform="rotate(0,100,140)"/><path d="M 95 155v 10h 10v -5a 5 5, 0, 0, 0, -5 -5" transform="rotate(-90,100,160)"/><rect x="95" y="165" width="10" height="10" transform="rotate(0,100,170)"/><rect x="95" y="175" width="10" height="10" transform="rotate(0,100,180)"/><rect x="95" y="185" width="10" height="10" transform="rotate(0,100,190)"/><path d="M 95 195v 10h 10v -5a 5 5, 0, 0, 0, -5 -5" transform="rotate(90,100,200)"/><path d="M 95 215v 10h 10v -5a 5 5, 0, 0, 0, -5 -5" transform="rotate(-90,100,220)"/><path d="M 95 225v 10h 10v -5a 5 5, 0, 0, 0, -5 -5" transform="rotate(90,100,230)"/><path d="M 95 265v 10h 10v -5a 5 5, 0, 0, 0, -5 -5" transform="rotate(90,100,270)"/><rect x="95" y="285" width="10" height="10" transform="rotate(0,100,290)"/><path d="M 105 15v 10h 10v -5a 5 5, 0, 0, 0, -5 -5" transform="rotate(-90,110,20)"/><rect x="105" y="25" width="10" height="10" transform="rotate(0,110,30)"/><rect x="105" y="35" width="10" height="10" transform="rotate(0,110,40)"/><rect x="105" y="45" width="10" height="10" transform="rotate(0,110,50)"/><rect x="105" y="55" width="10" height="10" transform="rotate(0,110,60)"/><path d="M 105 65v 10h 10v -5a 5 5, 0, 0, 0, -5 -5" transform="rotate(90,110,70)"/><rect x="105" y="115" width="10" height="10" transform="rotate(0,110,120)"/><path d="M 105 135v 10h 10v -5a 5 5, 0, 0, 0, -5 -5" transform="rotate(90,110,140)"/><rect x="105" y="155" width="10" height="10" transform="rotate(0,110,160)"/><path d="M 105 165v 10h 10v -5a 5 5, 0, 0, 0, -5 -5" transform="rotate(90,110,170)"/><rect x="105" y="185" width="10" height="10" transform="rotate(0,110,190)"/><path d="M 105 255v 5a 5 5, 0, 0, 0, 5 5h 5v -5a 5 5, 0, 0, 0, -5 -5" transform="rotate(90,110,260)"/><path d="M 105 275v 10h 10v -5a 5 5, 0, 0, 0, -5 -5" transform="rotate(-90,110,280)"/><path d="M 105 285v 10h 10v -5a 5 5, 0, 0, 0, -5 -5" transform="rotate(90,110,290)"/><path d="M 115 55v 10h 10v -5a 5 5, 0, 0, 0, -5 -5" transform="rotate(90,120,60)"/><path d="M 115 75v 10h 10v -5a 5 5, 0, 0, 0, -5 -5" transform="rotate(-90,120,80)"/><path d="M 115 95v 10h 10v -5a 5 5, 0, 0, 0, -5 -5" transform="rotate(-90,120,100)"/><rect x="115" y="105" width="10" height="10" transform="rotate(0,120,110)"/><rect x="115" y="115" width="10" height="10" transform="rotate(0,120,120)"/><path d="M 115 125v 10h 10v -5a 5 5, 0, 0, 0, -5 -5" transform="rotate(90,120,130)"/><path d="M 115 155v 10h 10v -5a 5 5, 0, 0, 0, -5 -5" transform="rotate(90,120,160)"/><path d="M 115 175v 10h 10v -5a 5 5, 0, 0, 0, -5 -5" transform="rotate(-90,120,180)"/><path d="M 115 185v 10h 10v -5a 5 5, 0, 0, 0, -5 -5" transform="rotate(90,120,190)"/><path d="M 115 205v 10h 10v -5a 5 5, 0, 0, 0, -5 -5" transform="rotate(-90,120,210)"/><rect x="115" y="215" width="10" height="10" transform="rotate(0,120,220)"/><rect x="115" y="225" width="10" height="10" transform="rotate(0,120,230)"/><rect x="115" y="235" width="10" height="10" transform="rotate(0,120,240)"/><path d="M 115 275v 10h 10v -5a 5 5, 0, 0, 0, -5 -5" transform="rotate(90,120,280)"/><path d="M 125 15v 10h 10v -5a 5 5, 0, 0, 0, -5 -5" transform="rotate(-90,130,20)"/><path d="M 125 65v 10h 10v -5a 5 5, 0, 0, 0, -5 -5" transform="rotate(-90,130,70)"/><rect x="125" y="75" width="10" height="10" transform="rotate(0,130,80)"/><path d="M 125 85v 10h 10v -5a 5 5, 0, 0, 0, -5 -5" transform="rotate(90,130,90)"/><rect x="125" y="105" width="10" height="10" transform="rotate(0,130,110)"/><rect x="125" y="115" width="10" height="10" transform="rotate(0,130,120)"/><path d="M 125 145v 10h 10v -5a 5 5, 0, 0, 0, -5 -5" transform="rotate(-90,130,150)"/><path d="M 125 175v 10h 10v -5a 5 5, 0, 0, 0, -5 -5" transform="rotate(90,130,180)"/><rect x="125" y="205" width="10" height="10" transform="rotate(0,130,210)"/><rect x="125" y="225" width="10" height="10" transform="rotate(0,130,230)"/><rect x="125" y="235" width="10" height="10" transform="rotate(0,130,240)"/><path d="M 125 265v 5a 5 5, 0, 0, 0, 5 5h 5v -5a 5 5, 0, 0, 0, -5 -5" transform="rotate(90,130,270)"/><rect x="135" y="15" width="10" height="10" transform="rotate(0,140,20)"/><rect x="135" y="25" width="10" height="10" transform="rotate(0,140,30)"/><rect x="135" y="35" width="10" height="10" transform="rotate(0,140,40)"/><rect x="135" y="45" width="10" height="10" transform="rotate(0,140,50)"/><rect x="135" y="75" width="10" height="10" transform="rotate(0,140,80)"/><rect x="135" y="115" width="10" height="10" transform="rotate(0,140,120)"/><rect x="135" y="125" width="10" height="10" transform="rotate(0,140,130)"/><rect x="135" y="145" width="10" height="10" transform="rotate(0,140,150)"/><rect x="135" y="155" width="10" height="10" transform="rotate(0,140,160)"/><rect x="135" y="165" width="10" height="10" transform="rotate(0,140,170)"/><path d="M 135 185v 5a 5 5, 0, 0, 0, 5 5h 5v -5a 5 5, 0, 0, 0, -5 -5" transform="rotate(90,140,190)"/><rect x="135" y="205" width="10" height="10" transform="rotate(0,140,210)"/><rect x="135" y="215" width="10" height="10" transform="rotate(0,140,220)"/><rect x="135" y="225" width="10" height="10" transform="rotate(0,140,230)"/><rect x="135" y="235" width="10" height="10" transform="rotate(0,140,240)"/><path d="M 135 275v 10h 10v -5a 5 5, 0, 0, 0, -5 -5" transform="rotate(-90,140,280)"/><rect x="135" y="285" width="10" height="10" transform="rotate(0,140,290)"/><rect x="145" y="15" width="10" height="10" transform="rotate(0,150,20)"/><rect x="145" y="35" width="10" height="10" transform="rotate(0,150,40)"/><path d="M 145 45v 10h 10v -5a 5 5, 0, 0, 0, -5 -5" transform="rotate(90,150,50)"/><path d="M 145 65v 10h 10v -5a 5 5, 0, 0, 0, -5 -5" transform="rotate(-90,150,70)"/><path d="M 145 75v 10h 10v -5a 5 5, 0, 0, 0, -5 -5" transform="rotate(90,150,80)"/><rect x="145" y="115" width="10" height="10" transform="rotate(0,150,120)"/><path d="M 145 125v 10h 10v -5a 5 5, 0, 0, 0, -5 -5" transform="rotate(90,150,130)"/><path d="M 145 145v 10h 10v -5a 5 5, 0, 0, 0, -5 -5" transform="rotate(90,150,150)"/><rect x="145" y="165" width="10" height="10" transform="rotate(0,150,170)"/><path d="M 145 175v 10h 10v -5a 5 5, 0, 0, 0, -5 -5" transform="rotate(90,150,180)"/><rect x="145" y="225" width="10" height="10" transform="rotate(0,150,230)"/><rect x="145" y="235" width="10" height="10" transform="rotate(0,150,240)"/><path d="M 145 265v 5a 5 5, 0, 0, 0, 5 5h 5v -5a 5 5, 0, 0, 0, -5 -5" transform="rotate(90,150,270)"/><path d="M 145 285v 10h 10v -5a 5 5, 0, 0, 0, -5 -5" transform="rotate(90,150,290)"/><path d="M 155 5v 10h 10v -5a 5 5, 0, 0, 0, -5 -5" transform="rotate(-90,160,10)"/><rect x="155" y="15" width="10" height="10" transform="rotate(0,160,20)"/><path d="M 155 55v 10h 10v -5a 5 5, 0, 0, 0, -5 -5" transform="rotate(-90,160,60)"/><path d="M 155 85v 10h 10v -5a 5 5, 0, 0, 0, -5 -5" transform="rotate(-90,160,90)"/><rect x="155" y="115" width="10" height="10" transform="rotate(0,160,120)"/><path d="M 155 195v 10h 10v -5a 5 5, 0, 0, 0, -5 -5" transform="rotate(-90,160,200)"/><path d="M 155 205v 10h 10v -5a 5 5, 0, 0, 0, -5 -5" transform="rotate(90,160,210)"/><rect x="155" y="235" width="10" height="10" transform="rotate(0,160,240)"/><rect x="165" y="15" width="10" height="10" transform="rotate(0,170,20)"/><rect x="165" y="25" width="10" height="10" transform="rotate(0,170,30)"/><rect x="165" y="35" width="10" height="10" transform="rotate(0,170,40)"/><rect x="165" y="55" width="10" height="10" transform="rotate(0,170,60)"/><rect x="165" y="65" width="10" height="10" transform="rotate(0,170,70)"/><rect x="165" y="75" width="10" height="10" transform="rotate(0,170,80)"/><path d="M 165 85v 10h 10v -5a 5 5, 0, 0, 0, -5 -5" transform="rotate(90,170,90)"/><path d="M 165 105v 10h 10v -5a 5 5, 0, 0, 0, -5 -5" transform="rotate(-90,170,110)"/><rect x="165" y="115" width="10" height="10" transform="rotate(0,170,120)"/><rect x="165" y="125" width="10" height="10" transform="rotate(0,170,130)"/><rect x="165" y="135" width="10" height="10" transform="rotate(0,170,140)"/><rect x="165" y="145" width="10" height="10" transform="rotate(0,170,150)"/><rect x="165" y="155" width="10" height="10" transform="rotate(0,170,160)"/><path d="M 165 195v 10h 10v -5a 5 5, 0, 0, 0, -5 -5" transform="rotate(90,170,200)"/><path d="M 165 215v 10h 10v -5a 5 5, 0, 0, 0, -5 -5" transform="rotate(-90,170,220)"/><rect x="165" y="225" width="10" height="10" transform="rotate(0,170,230)"/><rect x="165" y="235" width="10" height="10" transform="rotate(0,170,240)"/><rect x="165" y="245" width="10" height="10" transform="rotate(0,170,250)"/><path d="M 165 255v 10h 10v -5a 5 5, 0, 0, 0, -5 -5" transform="rotate(90,170,260)"/><path d="M 165 275v 10h 10v -5a 5 5, 0, 0, 0, -5 -5" transform="rotate(-90,170,280)"/><rect x="175" y="25" width="10" height="10" transform="rotate(0,180,30)"/><rect x="175" y="35" width="10" height="10" transform="rotate(0,180,40)"/><rect x="175" y="45" width="10" height="10" transform="rotate(0,180,50)"/><path d="M 175 95v 10h 10v -5a 5 5, 0, 0, 0, -5 -5" transform="rotate(-90,180,100)"/><path d="M 175 105v 10h 10v -5a 5 5, 0, 0, 0, -5 -5" transform="rotate(90,180,110)"/><rect x="175" y="125" width="10" height="10" transform="rotate(0,180,130)"/><rect x="175" y="135" width="10" height="10" transform="rotate(0,180,140)"/><path d="M 175 155v 10h 10v -5a 5 5, 0, 0, 0, -5 -5" transform="rotate(90,180,160)"/><path d="M 175 175v 10h 10v -5a 5 5, 0, 0, 0, -5 -5" transform="rotate(-90,180,180)"/><rect x="175" y="275" width="10" height="10" transform="rotate(0,180,280)"/><rect x="175" y="285" width="10" height="10" transform="rotate(0,180,290)"/><path d="M 185 5v 5a 5 5, 0, 0, 0, 5 5h 5v -5a 5 5, 0, 0, 0, -5 -5" transform="rotate(90,190,10)"/><path d="M 185 45v 10h 10v -5a 5 5, 0, 0, 0, -5 -5" transform="rotate(90,190,50)"/><path d="M 185 65v 5a 5 5, 0, 0, 0, 5 5h 5v -5a 5 5, 0, 0, 0, -5 -5" transform="rotate(90,190,70)"/><path d="M 185 95v 10h 10v -5a 5 5, 0, 0, 0, -5 -5" transform="rotate(90,190,100)"/><path d="M 185 115v 5a 5 5, 0, 0, 0, 5 5h 5v -5a 5 5, 0, 0, 0, -5 -5" transform="rotate(90,190,120)"/><rect x="185" y="135" width="10" height="10" transform="rotate(0,190,140)"/><path d="M 185 145v 10h 10v -5a 5 5, 0, 0, 0, -5 -5" transform="rotate(90,190,150)"/><rect x="185" y="175" width="10" height="10" transform="rotate(0,190,180)"/><path d="M 185 185v 10h 10v -5a 5 5, 0, 0, 0, -5 -5" transform="rotate(90,190,190)"/><path d="M 185 215v 5a 5 5, 0, 0, 0, 5 5h 5v -5a 5 5, 0, 0, 0, -5 -5" transform="rotate(90,190,220)"/><path d="M 185 245v 10h 10v -5a 5 5, 0, 0, 0, -5 -5" transform="rotate(-90,190,250)"/><path d="M 185 265v 10h 10v -5a 5 5, 0, 0, 0, -5 -5" transform="rotate(-90,190,270)"/><rect x="185" y="275" width="10" height="10" transform="rotate(0,190,280)"/><rect x="185" y="285" width="10" height="10" transform="rotate(0,190,290)"/><path d="M 195 15v 10h 10v -5a 5 5, 0, 0, 0, -5 -5" transform="rotate(-90,200,20)"/><rect x="195" y="25" width="10" height="10" transform="rotate(0,200,30)"/><path d="M 195 35v 10h 10v -5a 5 5, 0, 0, 0, -5 -5" transform="rotate(90,200,40)"/><path d="M 195 85v 5a 5 5, 0, 0, 0, 5 5h 5v -5a 5 5, 0, 0, 0, -5 -5" transform="rotate(90,200,90)"/><path d="M 195 105v 5a 5 5, 0, 0, 0, 5 5h 5v -5a 5 5, 0, 0, 0, -5 -5" transform="rotate(90,200,110)"/><path d="M 195 155v 5a 5 5, 0, 0, 0, 5 5h 5v -5a 5 5, 0, 0, 0, -5 -5" transform="rotate(90,200,160)"/><rect x="195" y="175" width="10" height="10" transform="rotate(0,200,180)"/><path d="M 195 195v 10h 10v -5a 5 5, 0, 0, 0, -5 -5" transform="rotate(-90,200,200)"/><rect x="195" y="205" width="10" height="10" transform="rotate(0,200,210)"/><path d="M 195 225v 10h 10v -5a 5 5, 0, 0, 0, -5 -5" transform="rotate(-90,200,230)"/><rect x="195" y="235" width="10" height="10" transform="rotate(0,200,240)"/><rect x="195" y="245" width="10" height="10" transform="rotate(0,200,250)"/><rect x="195" y="275" width="10" height="10" transform="rotate(0,200,280)"/><path d="M 195 285v 10h 10v -5a 5 5, 0, 0, 0, -5 -5" transform="rotate(90,200,290)"/><path d="M 205 5v 5a 5 5, 0, 0, 0, 5 5h 5v -5a 5 5, 0, 0, 0, -5 -5" transform="rotate(90,210,10)"/><path d="M 205 25v 10h 10v -5a 5 5, 0, 0, 0, -5 -5" transform="rotate(90,210,30)"/><path d="M 205 55v 10h 10v -5a 5 5, 0, 0, 0, -5 -5" transform="rotate(-90,210,60)"/><rect x="205" y="65" width="10" height="10" transform="rotate(0,210,70)"/><path d="M 205 75v 10h 10v -5a 5 5, 0, 0, 0, -5 -5" transform="rotate(90,210,80)"/><path d="M 205 125v 5a 5 5, 0, 0, 0, 5 5h 5v -5a 5 5, 0, 0, 0, -5 -5" transform="rotate(90,210,130)"/><path d="M 205 165v 10h 10v -5a 5 5, 0, 0, 0, -5 -5" transform="rotate(-90,210,170)"/><rect x="205" y="175" width="10" height="10" transform="rotate(0,210,180)"/><path d="M 205 185v 10h 10v -5a 5 5, 0, 0, 0, -5 -5" transform="rotate(90,210,190)"/><rect x="205" y="205" width="10" height="10" transform="rotate(0,210,210)"/><rect x="205" y="215" width="10" height="10" transform="rotate(0,210,220)"/><rect x="205" y="225" width="10" height="10" transform="rotate(0,210,230)"/><rect x="205" y="235" width="10" height="10" transform="rotate(0,210,240)"/><rect x="205" y="245" width="10" height="10" transform="rotate(0,210,250)"/><path d="M 205 265v 5a 5 5, 0, 0, 0, 5 5h 5v -5a 5 5, 0, 0, 0, -5 -5" transform="rotate(90,210,270)"/><path d="M 215 85v 10h 10v -5a 5 5, 0, 0, 0, -5 -5" transform="rotate(-90,220,90)"/><rect x="215" y="95" width="10" height="10" transform="rotate(0,220,100)"/><rect x="215" y="105" width="10" height="10" transform="rotate(0,220,110)"/><path d="M 215 115v 10h 10v -5a 5 5, 0, 0, 0, -5 -5" transform="rotate(90,220,120)"/><rect x="215" y="165" width="10" height="10" transform="rotate(0,220,170)"/><path d="M 215 175v 10h 10v -5a 5 5, 0, 0, 0, -5 -5" transform="rotate(90,220,180)"/><path d="M 215 195v 10h 10v -5a 5 5, 0, 0, 0, -5 -5" transform="rotate(-90,220,200)"/><rect x="215" y="205" width="10" height="10" transform="rotate(0,220,210)"/><rect x="215" y="245" width="10" height="10" transform="rotate(0,220,250)"/><path d="M 215 275v 10h 10v -5a 5 5, 0, 0, 0, -5 -5" transform="rotate(-90,220,280)"/><rect x="215" y="285" width="10" height="10" transform="rotate(0,220,290)"/><rect x="225" y="85" width="10" height="10" transform="rotate(0,230,90)"/><path d="M 225 95v 10h 10v -5a 5 5, 0, 0, 0, -5 -5" transform="rotate(90,230,100)"/><path d="M 225 135v 10h 10v -5a 5 5, 0, 0, 0, -5 -5" transform="rotate(-90,230,140)"/><path d="M 225 185v 10h 10v -5a 5 5, 0, 0, 0, -5 -5" transform="rotate(-90,230,190)"/><rect x="225" y="195" width="10" height="10" transform="rotate(0,230,200)"/><rect x="225" y="205" width="10" height="10" transform="rotate(0,230,210)"/><path d="M 225 225v 5a 5 5, 0, 0, 0, 5 5h 5v -5a 5 5, 0, 0, 0, -5 -5" transform="rotate(90,230,230)"/><rect x="225" y="245" width="10" height="10" transform="rotate(0,230,250)"/><path d="M 225 265v 10h 10v -5a 5 5, 0, 0, 0, -5 -5" transform="rotate(-90,230,270)"/><rect x="225" y="275" width="10" height="10" transform="rotate(0,230,280)"/><rect x="225" y="285" width="10" height="10" transform="rotate(0,230,290)"/><path d="M 235 115v 10h 10v -5a 5 5, 0, 0, 0, -5 -5" transform="rotate(-90,240,120)"/><rect x="235" y="125" width="10" height="10" transform="rotate(0,240,130)"/><rect x="235" y="135" width="10" height="10" transform="rotate(0,240,140)"/><rect x="235" y="145" width="10" height="10" transform="rotate(0,240,150)"/><path d="M 235 175v 10h 10v -5a 5 5, 0, 0, 0, -5 -5" transform="rotate(-90,240,180)"/><rect x="235" y="185" width="10" height="10" transform="rotate(0,240,190)"/><rect x="235" y="205" width="10" height="10" transform="rotate(0,240,210)"/><rect x="235" y="245" width="10" height="10" transform="rotate(0,240,250)"/><path d="M 235 285v 10h 10v -5a 5 5, 0, 0, 0, -5 -5" transform="rotate(90,240,290)"/><path d="M 245 85v 10h 10v -5a 5 5, 0, 0, 0, -5 -5" transform="rotate(-90,250,90)"/><rect x="245" y="95" width="10" height="10" transform="rotate(0,250,100)"/><rect x="245" y="115" width="10" height="10" transform="rotate(0,250,120)"/><path d="M 245 125v 10h 10v -5a 5 5, 0, 0, 0, -5 -5" transform="rotate(90,250,130)"/><rect x="245" y="145" width="10" height="10" transform="rotate(0,250,150)"/><path d="M 245 165v 10h 10v -5a 5 5, 0, 0, 0, -5 -5" transform="rotate(-90,250,170)"/><rect x="245" y="185" width="10" height="10" transform="rotate(0,250,190)"/><rect x="245" y="205" width="10" height="10" transform="rotate(0,250,210)"/><rect x="245" y="215" width="10" height="10" transform="rotate(0,250,220)"/><rect x="245" y="225" width="10" height="10" transform="rotate(0,250,230)"/><rect x="245" y="235" width="10" height="10" transform="rotate(0,250,240)"/><rect x="245" y="245" width="10" height="10" transform="rotate(0,250,250)"/><path d="M 245 255v 10h 10v -5a 5 5, 0, 0, 0, -5 -5" transform="rotate(90,250,260)"/><path d="M 245 275v 5a 5 5, 0, 0, 0, 5 5h 5v -5a 5 5, 0, 0, 0, -5 -5" transform="rotate(90,250,280)"/><rect x="255" y="95" width="10" height="10" transform="rotate(0,260,100)"/><path d="M 255 135v 10h 10v -5a 5 5, 0, 0, 0, -5 -5" transform="rotate(-90,260,140)"/><rect x="255" y="145" width="10" height="10" transform="rotate(0,260,150)"/><rect x="255" y="155" width="10" height="10" transform="rotate(0,260,160)"/><rect x="255" y="165" width="10" height="10" transform="rotate(0,260,170)"/><path d="M 255 185v 10h 10v -5a 5 5, 0, 0, 0, -5 -5" transform="rotate(90,260,190)"/><rect x="255" y="205" width="10" height="10" transform="rotate(0,260,210)"/><path d="M 255 215v 10h 10v -5a 5 5, 0, 0, 0, -5 -5" transform="rotate(90,260,220)"/><rect x="255" y="245" width="10" height="10" transform="rotate(0,260,250)"/><path d="M 265 85v 10h 10v -5a 5 5, 0, 0, 0, -5 -5" transform="rotate(-90,270,90)"/><rect x="265" y="95" width="10" height="10" transform="rotate(0,270,100)"/><rect x="265" y="105" width="10" height="10" transform="rotate(0,270,110)"/><rect x="265" y="115" width="10" height="10" transform="rotate(0,270,120)"/><rect x="265" y="135" width="10" height="10" transform="rotate(0,270,140)"/><rect x="265" y="155" width="10" height="10" transform="rotate(0,270,160)"/><rect x="265" y="165" width="10" height="10" transform="rotate(0,270,170)"/><rect x="265" y="175" width="10" height="10" transform="rotate(0,270,180)"/><path d="M 265 195v 5a 5 5, 0, 0, 0, 5 5h 5v -5a 5 5, 0, 0, 0, -5 -5" transform="rotate(90,270,200)"/><path d="M 265 235v 10h 10v -5a 5 5, 0, 0, 0, -5 -5" transform="rotate(-90,270,240)"/><rect x="265" y="245" width="10" height="10" transform="rotate(0,270,250)"/><path d="M 265 255v 10h 10v -5a 5 5, 0, 0, 0, -5 -5" transform="rotate(90,270,260)"/><path d="M 265 285v 5a 5 5, 0, 0, 0, 5 5h 5v -5a 5 5, 0, 0, 0, -5 -5" transform="rotate(90,270,290)"/><rect x="275" y="85" width="10" height="10" transform="rotate(0,280,90)"/><rect x="275" y="95" width="10" height="10" transform="rotate(0,280,100)"/><rect x="275" y="105" width="10" height="10" transform="rotate(0,280,110)"/><rect x="275" y="115" width="10" height="10" transform="rotate(0,280,120)"/><rect x="275" y="125" width="10" height="10" transform="rotate(0,280,130)"/><rect x="275" y="135" width="10" height="10" transform="rotate(0,280,140)"/><path d="M 275 145v 10h 10v -5a 5 5, 0, 0, 0, -5 -5" transform="rotate(90,280,150)"/><rect x="275" y="165" width="10" height="10" transform="rotate(0,280,170)"/><rect x="275" y="175" width="10" height="10" transform="rotate(0,280,180)"/><path d="M 275 205v 10h 10v -5a 5 5, 0, 0, 0, -5 -5" transform="rotate(-90,280,210)"/><rect x="275" y="215" width="10" height="10" transform="rotate(0,280,220)"/><path d="M 275 235v 10h 10v -5a 5 5, 0, 0, 0, -5 -5" transform="rotate(90,280,240)"/><path d="M 275 275v 10h 10v -5a 5 5, 0, 0, 0, -5 -5" transform="rotate(-90,280,280)"/><path d="M 285 95v 10h 10v -5a 5 5, 0, 0, 0, -5 -5" transform="rotate(90,290,100)"/><path d="M 285 115v 10h 10v -5a 5 5, 0, 0, 0, -5 -5" transform="rotate(90,290,120)"/><path d="M 285 155v 10h 10v -5a 5 5, 0, 0, 0, -5 -5" transform="rotate(-90,290,160)"/><rect x="285" y="165" width="10" height="10" transform="rotate(0,290,170)"/><path d="M 285 175v 10h 10v -5a 5 5, 0, 0, 0, -5 -5" transform="rotate(90,290,180)"/><rect x="285" y="205" width="10" height="10" transform="rotate(0,290,210)"/><path d="M 285 215v 10h 10v -5a 5 5, 0, 0, 0, -5 -5" transform="rotate(90,290,220)"/><path d="M 285 245v 10h 10v -5a 5 5, 0, 0, 0, -5 -5" transform="rotate(-90,290,250)"/><rect x="285" y="255" width="10" height="10" transform="rotate(0,290,260)"/><rect x="285" y="265" width="10" height="10" transform="rotate(0,290,270)"/><rect x="285" y="275" width="10" height="10" transform="rotate(0,290,280)"/><path d="M 285 285v 10h 10v -5a 5 5, 0, 0, 0, -5 -5" transform="rotate(90,290,290)"/></g><g class="corners-square-color-0-0"><path clip-rule="evenodd" d="M 5 30v 20a 25 25, 0, 0, 0, 25 25h 20a 25 25, 0, 0, 0, 25 -25v -20a 25 25, 0, 0, 0, -25 -25h -20a 25 25, 0, 0, 0, -25 25M 30 15h 20a 15 15, 0, 0, 1, 15 15v 20a 15 15, 0, 0, 1, -15 15h -20a 15 15, 0, 0, 1, -15 -15v -20a 15 15, 0, 0, 1, 15 -15" transform="rotate(0,40,40)"/></g><g class="corners-dot-color-0-0"><circle cx="40" cy="40" r="15" transform="rotate(0,40,40)"/></g><g class="corners-square-color-1-0"><path clip-rule="evenodd" d="M 225 30v 20a 25 25, 0, 0, 0, 25 25h 20a 25 25, 0, 0, 0, 25 -25v -20a 25 25, 0, 0, 0, -25 -25h -20a 25 25, 0, 0, 0, -25 25M 250 15h 20a 15 15, 0, 0, 1, 15 15v 20a 15 15, 0, 0, 1, -15 15h -20a 15 15, 0, 0, 1, -15 -15v -20a 15 15, 0, 0, 1, 15 -15" transform="rotate(90,260,40)"/></g><g class="corners-dot-color-1-0"><circle cx="260" cy="40" r="15" transform="rotate(90,260,40)"/></g><g class="corners-square-color-0-1"><path clip-rule="evenodd" d="M 5 250v 20a 25 25, 0, 0, 0, 25 25h 20a 25 25, 0, 0, 0, 25 -25v -20a 25 25, 0, 0, 0, -25 -25h -20a 25 25, 0, 0, 0, -25 25M 30 235h 20a 15 15, 0, 0, 1, 15 15v 20a 15 15, 0, 0, 1, -15 15h -20a 15 15, 0, 0, 1, -15 -15v -20a 15 15, 0, 0, 1, 15 -15" transform="rotate(-90,40,260)"/></g><g class="corners-dot-color-0-1"><circle cx="40" cy="260" r="15" transform="rotate(-90,40,260)"/></g></svg></g></svg><g transform="translate(150,59)"><style>
               .small717{
                  fill:#ffffff;
                  font-size:40px;
                  font-family: Tahoma, sans-serif;
                  }</style><text x="0" y="-4" text-anchor="middle" class="small717">SCAN ME</text></g></svg>